<svg xmlns="http://www.w3.org/2000/svg" version="1.1" xmlns:xlink="http://www.w3.org/1999/xlink" xmlns:svgjs="http://svgjs.dev/svgjs" viewBox="0 0 1422 800"><circle r="10" cx="514" cy="340" stroke-width="2" stroke="hsl(248, 50%, 50%)" fill="none" opacity="0.99"></circle><circle r="7.5" cx="1402" cy="207" fill="hsl(222, 50%, 50%)" opacity="0.16"></circle><circle r="13.5" cx="444" cy="36" fill="hsl(231, 50%, 50%)" opacity="0.92"></circle><circle r="5" cx="748" cy="69" fill="hsl(252, 50%, 50%)" opacity="0.96"></circle><circle r="6.5" cx="1235" cy="525" stroke-width="2" stroke="hsl(286, 50%, 50%)" fill="none" opacity="0.47"></circle><circle r="8.5" cx="546" cy="402" fill="hsl(248, 50%, 50%)" opacity="0.17"></circle><circle r="10.5" cx="193" cy="221" stroke-width="2" stroke="hsl(233, 50%, 50%)" fill="none" opacity="0.97"></circle><circle r="10" cx="497" cy="207" stroke-width="2" stroke="hsl(249, 50%, 50%)" fill="none" opacity="0.65"></circle><circle r="7.5" cx="350" cy="639" fill="hsl(254, 50%, 50%)" opacity="0.89"></circle><circle r="9.5" cx="837" cy="612" stroke-width="2" stroke="hsl(231, 50%, 50%)" fill="none" opacity="0.36"></circle><circle r="10" cx="1362" cy="562" stroke-width="2" stroke="hsl(243, 50%, 50%)" fill="none" opacity="0.81"></circle><circle r="9.5" cx="182" cy="75" stroke-width="2" stroke="hsl(242, 50%, 50%)" fill="none" opacity="0.99"></circle><circle r="8.5" cx="904" cy="528" fill="hsl(235, 50%, 50%)" opacity="0.21"></circle><circle r="9" cx="620" cy="524" stroke-width="2" stroke="hsl(247, 50%, 50%)" fill="none" opacity="0.77"></circle><circle r="9.5" cx="723" cy="313" stroke-width="2" stroke="hsl(240, 50%, 50%)" fill="none" opacity="0.11"></circle><circle r="7" cx="736" cy="225" stroke-width="2" stroke="hsl(237, 50%, 50%)" fill="none" opacity="0.78"></circle><circle r="8" cx="1390" cy="460" fill="hsl(233, 50%, 50%)" opacity="0.14"></circle><circle r="6" cx="1112" cy="655" fill="hsl(286, 50%, 50%)" opacity="0.54"></circle><circle r="8" cx="935" cy="564" stroke-width="2" stroke="hsl(243, 50%, 50%)" fill="none" opacity="0.80"></circle><circle r="7.5" cx="1171" cy="641" stroke-width="2" stroke="hsl(290, 50%, 50%)" fill="none" opacity="0.97"></circle><circle r="7.5" cx="1342" cy="262" stroke-width="2" stroke="hsl(253, 50%, 50%)" fill="none" opacity="0.92"></circle><circle r="9" cx="272" cy="275" fill="hsl(250, 50%, 50%)" opacity="0.53"></circle><circle r="6" cx="827" cy="785" stroke-width="2" stroke="hsl(231, 50%, 50%)" fill="none" opacity="0.31"></circle><circle r="11" cx="96" cy="687" stroke-width="2" stroke="hsl(202, 50%, 50%)" fill="none" opacity="0.21"></circle><circle r="7.5" cx="647" cy="604" fill="hsl(245, 50%, 50%)" opacity="0.66"></circle><circle r="7" cx="1132" cy="378" stroke-width="2" stroke="hsl(286, 50%, 50%)" fill="none" opacity="0.70"></circle><circle r="10.5" cx="254" cy="220" fill="hsl(247, 50%, 50%)" opacity="0.51"></circle><circle r="7.5" cx="1273" cy="721" stroke-width="2" stroke="hsl(277, 50%, 50%)" fill="none" opacity="0.34"></circle><circle r="8" cx="1033" cy="436" fill="hsl(266, 50%, 50%)" opacity="0.40"></circle><circle r="6.5" cx="1263" cy="777" fill="hsl(282, 50%, 50%)" opacity="0.11"></circle><circle r="14" cx="283" cy="52" fill="hsl(250, 50%, 50%)" opacity="0.38"></circle><circle r="5.5" cx="1037" cy="630" fill="hsl(266, 50%, 50%)" opacity="0.34"></circle><circle r="6.5" cx="1193" cy="503" fill="hsl(290, 50%, 50%)" opacity="0.37"></circle><circle r="10.5" cx="457" cy="100" stroke-width="2" stroke="hsl(236, 50%, 50%)" fill="none" opacity="0.71"></circle><circle r="8" cx="425" cy="487" stroke-width="2" stroke="hsl(252, 50%, 50%)" fill="none" opacity="0.22"></circle><circle r="8" cx="958" cy="125" fill="hsl(253, 50%, 50%)" opacity="0.31"></circle><circle r="8" cx="1301" cy="161" stroke-width="2" stroke="hsl(271, 50%, 50%)" fill="none" opacity="0.66"></circle><circle r="7.5" cx="1219" cy="216" stroke-width="2" stroke="hsl(289, 50%, 50%)" fill="none" opacity="0.33"></circle><circle r="13" cx="232" cy="140" fill="hsl(245, 50%, 50%)" opacity="0.29"></circle><circle r="8" cx="242" cy="591" stroke-width="2" stroke="hsl(243, 50%, 50%)" fill="none" opacity="0.40"></circle><circle r="7" cx="1355" cy="394" fill="hsl(253, 50%, 50%)" opacity="0.87"></circle><circle r="11.5" cx="397" cy="121" fill="hsl(243, 50%, 50%)" opacity="0.20"></circle><circle r="7.5" cx="1083" cy="473" stroke-width="2" stroke="hsl(278, 50%, 50%)" fill="none" opacity="0.74"></circle><circle r="9" cx="498" cy="518" fill="hsl(249, 50%, 50%)" opacity="0.76"></circle><circle r="9" cx="950" cy="314" fill="hsl(243, 50%, 50%)" opacity="0.97"></circle><circle r="8" cx="672" cy="654" fill="hsl(244, 50%, 50%)" opacity="0.19"></circle><circle r="7" cx="1377" cy="76" stroke-width="2" stroke="hsl(252, 50%, 50%)" fill="none" opacity="0.80"></circle><circle r="7.5" cx="736" cy="267" fill="hsl(237, 50%, 50%)" opacity="0.81"></circle><circle r="8" cx="453" cy="634" stroke-width="2" stroke="hsl(251, 50%, 50%)" fill="none" opacity="0.90"></circle><circle r="10.5" cx="567" cy="491" fill="hsl(248, 50%, 50%)" opacity="0.97"></circle><circle r="8.5" cx="370" cy="710" fill="hsl(254, 50%, 50%)" opacity="0.52"></circle><circle r="7" cx="1396" cy="378" stroke-width="2" stroke="hsl(233, 50%, 50%)" fill="none" opacity="0.21"></circle><circle r="8" cx="727" cy="643" stroke-width="2" stroke="hsl(240, 50%, 50%)" fill="none" opacity="0.11"></circle><circle r="9" cx="369" cy="406" fill="hsl(254, 50%, 50%)" opacity="0.60"></circle><circle r="6.5" cx="842" cy="165" stroke-width="2" stroke="hsl(236, 50%, 50%)" fill="none" opacity="0.37"></circle><circle r="8.5" cx="1258" cy="329" fill="hsl(282, 50%, 50%)" opacity="0.19"></circle><circle r="5" cx="1131" cy="690" fill="hsl(286, 50%, 50%)" opacity="0.73"></circle><circle r="12" cx="119" cy="562" stroke-width="2" stroke="hsl(210, 50%, 50%)" fill="none" opacity="0.37"></circle><circle r="8.5" cx="1167" cy="80" stroke-width="2" stroke="hsl(269, 50%, 50%)" fill="none" opacity="0.44"></circle><circle r="8.5" cx="945" cy="494" fill="hsl(243, 50%, 50%)" opacity="0.27"></circle><circle r="8" cx="608" cy="623" fill="hsl(247, 50%, 50%)" opacity="0.13"></circle><circle r="11.5" cx="1391" cy="681" fill="hsl(233, 50%, 50%)" opacity="0.53"></circle><circle r="10.5" cx="548" cy="167" fill="hsl(245, 50%, 50%)" opacity="0.67"></circle><circle r="11.5" cx="331" cy="214" fill="hsl(254, 50%, 50%)" opacity="0.67"></circle><circle r="6.5" cx="408" cy="630" fill="hsl(253, 50%, 50%)" opacity="0.50"></circle><circle r="11" cx="788" cy="646" fill="hsl(233, 50%, 50%)" opacity="0.21"></circle><circle r="8.5" cx="1191" cy="335" stroke-width="2" stroke="hsl(290, 50%, 50%)" fill="none" opacity="0.15"></circle><circle r="9" cx="442" cy="769" stroke-width="2" stroke="hsl(252, 50%, 50%)" fill="none" opacity="0.73"></circle><circle r="8.5" cx="1029" cy="492" stroke-width="2" stroke="hsl(266, 50%, 50%)" fill="none" opacity="0.66"></circle><circle r="7.5" cx="1081" cy="722" fill="hsl(278, 50%, 50%)" opacity="0.43"></circle><circle r="10.5" cx="650" cy="149" stroke-width="2" stroke="hsl(247, 50%, 50%)" fill="none" opacity="0.52"></circle><circle r="12.5" cx="195" cy="765" fill="hsl(233, 50%, 50%)" opacity="0.48"></circle><circle r="9.5" cx="672" cy="551" stroke-width="2" stroke="hsl(244, 50%, 50%)" fill="none" opacity="0.53"></circle><circle r="10" cx="417" cy="377" stroke-width="2" stroke="hsl(253, 50%, 50%)" fill="none" opacity="0.72"></circle><circle r="4.5" cx="747" cy="12" fill="hsl(249, 50%, 50%)" opacity="0.71"></circle><circle r="8" cx="1028" cy="775" fill="hsl(266, 50%, 50%)" opacity="0.92"></circle><circle r="7" cx="1105" cy="776" stroke-width="2" stroke="hsl(282, 50%, 50%)" fill="none" opacity="0.45"></circle><circle r="9" cx="621" cy="381" fill="hsl(247, 50%, 50%)" opacity="0.55"></circle><circle r="6.5" cx="1249" cy="677" fill="hsl(282, 50%, 50%)" opacity="0.63"></circle><circle r="9" cx="676" cy="703" fill="hsl(244, 50%, 50%)" opacity="0.16"></circle><circle r="7" cx="1016" cy="675" fill="hsl(260, 50%, 50%)" opacity="0.13"></circle><circle r="9.5" cx="1008" cy="383" stroke-width="2" stroke="hsl(260, 50%, 50%)" fill="none" opacity="0.83"></circle><circle r="7.5" cx="1403" cy="602" stroke-width="2" stroke="hsl(222, 50%, 50%)" fill="none" opacity="0.79"></circle><circle r="5" cx="1259" cy="483" fill="hsl(282, 50%, 50%)" opacity="0.12"></circle><circle r="9" cx="554" cy="605" stroke-width="2" stroke="hsl(248, 50%, 50%)" fill="none" opacity="0.20"></circle><circle r="7.5" cx="829" cy="90" stroke-width="2" stroke="hsl(248, 50%, 50%)" fill="none" opacity="0.92"></circle><circle r="8.5" cx="622" cy="466" fill="hsl(247, 50%, 50%)" opacity="0.39"></circle><circle r="11" cx="524" cy="29" fill="hsl(227, 50%, 50%)" opacity="0.34"></circle><circle r="7.5" cx="1142" cy="516" fill="hsl(289, 50%, 50%)" opacity="0.87"></circle><circle r="7" cx="757" cy="146" stroke-width="2" stroke="hsl(244, 50%, 50%)" fill="none" opacity="0.40"></circle><circle r="5.5" cx="966" cy="723" stroke-width="2" stroke="hsl(249, 50%, 50%)" fill="none" opacity="0.37"></circle><circle r="6" cx="952" cy="674" fill="hsl(243, 50%, 50%)" opacity="0.77"></circle><circle r="8.5" cx="280" cy="544" fill="hsl(250, 50%, 50%)" opacity="0.66"></circle><circle r="8.5" cx="1295" cy="615" stroke-width="2" stroke="hsl(270, 50%, 50%)" fill="none" opacity="0.85"></circle><circle r="7.5" cx="1267" cy="199" stroke-width="2" stroke="hsl(277, 50%, 50%)" fill="none" opacity="0.50"></circle><circle r="6.5" cx="1013" cy="593" fill="hsl(260, 50%, 50%)" opacity="0.90"></circle><circle r="8.5" cx="1200" cy="145" stroke-width="2" stroke="hsl(286, 50%, 50%)" fill="none" opacity="0.44"></circle><circle r="8.5" cx="486" cy="682" fill="hsl(250, 50%, 50%)" opacity="0.76"></circle><circle r="13.5" cx="84" cy="226" stroke-width="2" stroke="hsl(192, 50%, 50%)" fill="none" opacity="0.89"></circle><circle r="6" cx="696" cy="118" fill="hsl(249, 50%, 50%)" opacity="0.79"></circle><circle r="10.5" cx="272" cy="348" stroke-width="2" stroke="hsl(250, 50%, 50%)" fill="none" opacity="0.58"></circle><circle r="6.5" cx="1336" cy="432" fill="hsl(253, 50%, 50%)" opacity="0.34"></circle><circle r="11" cx="209" cy="378" stroke-width="2" stroke="hsl(239, 50%, 50%)" fill="none" opacity="0.86"></circle><circle r="7.5" cx="524" cy="648" stroke-width="2" stroke="hsl(248, 50%, 50%)" fill="none" opacity="0.31"></circle><circle r="6.5" cx="799" cy="19" fill="hsl(250, 50%, 50%)" opacity="0.65"></circle><circle r="7" cx="887" cy="718" fill="hsl(232, 50%, 50%)" opacity="0.18"></circle><circle r="7" cx="1182" cy="578" stroke-width="2" stroke="hsl(290, 50%, 50%)" fill="none" opacity="0.48"></circle><circle r="9" cx="486" cy="148" stroke-width="2" stroke="hsl(242, 50%, 50%)" fill="none" opacity="0.30"></circle><circle r="10" cx="855" cy="417" fill="hsl(231, 50%, 50%)" opacity="0.31"></circle><circle r="7" cx="1367" cy="500" fill="hsl(243, 50%, 50%)" opacity="0.93"></circle><circle r="7" cx="494" cy="780" fill="hsl(249, 50%, 50%)" opacity="0.36"></circle><circle r="9.5" cx="321" cy="292" stroke-width="2" stroke="hsl(254, 50%, 50%)" fill="none" opacity="0.59"></circle><circle r="5.5" cx="998" cy="628" fill="hsl(254, 50%, 50%)" opacity="0.34"></circle><circle r="8" cx="197" cy="574" stroke-width="2" stroke="hsl(233, 50%, 50%)" fill="none" opacity="0.58"></circle><circle r="8" cx="471" cy="467" fill="hsl(250, 50%, 50%)" opacity="0.25"></circle><circle r="7.5" cx="260" cy="778" fill="hsl(247, 50%, 50%)" opacity="0.84"></circle><circle r="9" cx="1003" cy="86" fill="hsl(255, 50%, 50%)" opacity="0.54"></circle><circle r="8.5" cx="830" cy="479" stroke-width="2" stroke="hsl(231, 50%, 50%)" fill="none" opacity="0.97"></circle><circle r="6.5" cx="694" cy="80" fill="hsl(250, 50%, 50%)" opacity="0.14"></circle><circle r="7.5" cx="298" cy="616" stroke-width="2" stroke="hsl(252, 50%, 50%)" fill="none" opacity="0.47"></circle><circle r="10.5" cx="737" cy="529" stroke-width="2" stroke="hsl(237, 50%, 50%)" fill="none" opacity="0.27"></circle><circle r="12.5" cx="105" cy="620" fill="hsl(202, 50%, 50%)" opacity="0.46"></circle><circle r="9" cx="473" cy="369" fill="hsl(250, 50%, 50%)" opacity="0.33"></circle><circle r="6" cx="1272" cy="400" stroke-width="2" stroke="hsl(277, 50%, 50%)" fill="none" opacity="0.34"></circle><circle r="9.5" cx="1344" cy="196" fill="hsl(253, 50%, 50%)" opacity="0.97"></circle><circle r="8.5" cx="1395" cy="163" fill="hsl(238, 50%, 50%)" opacity="0.55"></circle><circle r="8" cx="331" cy="526" fill="hsl(254, 50%, 50%)" opacity="0.95"></circle><circle r="7.5" cx="1402" cy="756" stroke-width="2" stroke="hsl(222, 50%, 50%)" fill="none" opacity="0.35"></circle><circle r="6.5" cx="348" cy="585" stroke-width="2" stroke="hsl(254, 50%, 50%)" fill="none" opacity="0.16"></circle><circle r="8" cx="742" cy="724" stroke-width="2" stroke="hsl(237, 50%, 50%)" fill="none" opacity="0.32"></circle><circle r="6.5" cx="1329" cy="473" stroke-width="2" stroke="hsl(262, 50%, 50%)" fill="none" opacity="0.14"></circle><circle r="10.5" cx="440" cy="316" fill="hsl(252, 50%, 50%)" opacity="0.82"></circle><circle r="7" cx="701" cy="186" stroke-width="2" stroke="hsl(242, 50%, 50%)" fill="none" opacity="0.94"></circle><circle r="8.5" cx="954" cy="612" stroke-width="2" stroke="hsl(243, 50%, 50%)" fill="none" opacity="0.15"></circle><circle r="6.5" cx="736" cy="105" stroke-width="2" stroke="hsl(251, 50%, 50%)" fill="none" opacity="0.27"></circle><circle r="8" cx="1318" cy="666" stroke-width="2" stroke="hsl(262, 50%, 50%)" fill="none" opacity="0.16"></circle><circle r="8" cx="1313" cy="771" stroke-width="2" stroke="hsl(262, 50%, 50%)" fill="none" opacity="0.36"></circle><circle r="7.5" cx="400" cy="671" stroke-width="2" stroke="hsl(253, 50%, 50%)" fill="none" opacity="0.15"></circle><circle r="8" cx="800" cy="142" stroke-width="2" stroke="hsl(242, 50%, 50%)" fill="none" opacity="0.86"></circle><circle r="10.5" cx="793" cy="519" stroke-width="2" stroke="hsl(233, 50%, 50%)" fill="none" opacity="0.26"></circle><circle r="8" cx="988" cy="516" fill="hsl(254, 50%, 50%)" opacity="0.23"></circle><circle r="8.5" cx="1058" cy="252" stroke-width="2" stroke="hsl(272, 50%, 50%)" fill="none" opacity="0.40"></circle><circle r="15" cx="88" cy="419" fill="hsl(192, 50%, 50%)" opacity="0.17"></circle><circle r="6.5" cx="800" cy="59" stroke-width="2" stroke="hsl(252, 50%, 50%)" fill="none" opacity="0.92"></circle><circle r="5.5" cx="1098" cy="607" stroke-width="2" stroke="hsl(282, 50%, 50%)" fill="none" opacity="0.92"></circle><circle r="16" cx="99" cy="39" fill="hsl(212, 50%, 50%)" opacity="0.87"></circle><circle r="9.5" cx="909" cy="224" fill="hsl(235, 50%, 50%)" opacity="0.45"></circle><circle r="10.5" cx="557" cy="237" stroke-width="2" stroke="hsl(248, 50%, 50%)" fill="none" opacity="0.97"></circle><circle r="7.5" cx="247" cy="636" stroke-width="2" stroke="hsl(247, 50%, 50%)" fill="none" opacity="0.15"></circle><circle r="10" cx="976" cy="175" fill="hsl(251, 50%, 50%)" opacity="0.89"></circle><circle r="5.5" cx="709" cy="150" stroke-width="2" stroke="hsl(247, 50%, 50%)" fill="none" opacity="0.81"></circle><circle r="8" cx="892" cy="61" stroke-width="2" stroke="hsl(248, 50%, 50%)" fill="none" opacity="0.68"></circle><circle r="10" cx="129" cy="263" fill="hsl(210, 50%, 50%)" opacity="0.26"></circle><circle r="7.5" cx="777" cy="102" fill="hsl(250, 50%, 50%)" opacity="0.65"></circle><circle r="8" cx="620" cy="669" stroke-width="2" stroke="hsl(247, 50%, 50%)" fill="none" opacity="0.20"></circle><circle r="9" cx="1160" cy="195" fill="hsl(290, 50%, 50%)" opacity="0.95"></circle><circle r="6" cx="592" cy="699" fill="hsl(247, 50%, 50%)" opacity="0.38"></circle><circle r="7" cx="819" cy="246" stroke-width="2" stroke="hsl(231, 50%, 50%)" fill="none" opacity="0.89"></circle><circle r="9" cx="307" cy="733" fill="hsl(252, 50%, 50%)" opacity="0.58"></circle><circle r="9" cx="427" cy="433" stroke-width="2" stroke="hsl(252, 50%, 50%)" fill="none" opacity="0.52"></circle><circle r="10" cx="508" cy="279" stroke-width="2" stroke="hsl(249, 50%, 50%)" fill="none" opacity="0.34"></circle><circle r="9.5" cx="984" cy="28" stroke-width="2" stroke="hsl(245, 50%, 50%)" fill="none" opacity="0.85"></circle><circle r="7" cx="1184" cy="695" stroke-width="2" stroke="hsl(290, 50%, 50%)" fill="none" opacity="0.49"></circle><circle r="8" cx="1168" cy="268" stroke-width="2" stroke="hsl(290, 50%, 50%)" fill="none" opacity="0.82"></circle><circle r="7.5" cx="1278" cy="68" stroke-width="2" stroke="hsl(266, 50%, 50%)" fill="none" opacity="0.69"></circle><circle r="8.5" cx="140" cy="667" stroke-width="2" stroke="hsl(218, 50%, 50%)" fill="none" opacity="0.49"></circle><circle r="7.5" cx="799" cy="760" stroke-width="2" stroke="hsl(233, 50%, 50%)" fill="none" opacity="0.82"></circle><circle r="6" cx="1243" cy="447" fill="hsl(286, 50%, 50%)" opacity="0.22"></circle><circle r="11" cx="597" cy="30" fill="hsl(232, 50%, 50%)" opacity="0.35"></circle><circle r="10.5" cx="949" cy="384" fill="hsl(243, 50%, 50%)" opacity="0.26"></circle><circle r="7.5" cx="1090" cy="529" fill="hsl(282, 50%, 50%)" opacity="1.00"></circle><circle r="9.5" cx="967" cy="443" fill="hsl(249, 50%, 50%)" opacity="0.78"></circle><circle r="10" cx="296" cy="481" fill="hsl(252, 50%, 50%)" opacity="0.57"></circle><circle r="7.5" cx="498" cy="615" stroke-width="2" stroke="hsl(249, 50%, 50%)" fill="none" opacity="0.42"></circle><circle r="8" cx="1333" cy="56" fill="hsl(255, 50%, 50%)" opacity="0.28"></circle><circle r="5" cx="1208" cy="782" stroke-width="2" stroke="hsl(289, 50%, 50%)" fill="none" opacity="0.78"></circle><circle r="8.5" cx="857" cy="28" stroke-width="2" stroke="hsl(249, 50%, 50%)" fill="none" opacity="0.31"></circle><circle r="9.5" cx="515" cy="93" fill="hsl(235, 50%, 50%)" opacity="0.12"></circle><circle r="8" cx="425" cy="580" stroke-width="2" stroke="hsl(252, 50%, 50%)" fill="none" opacity="0.83"></circle><circle r="8.5" cx="523" cy="461" stroke-width="2" stroke="hsl(248, 50%, 50%)" fill="none" opacity="0.57"></circle><circle r="12" cx="79" cy="506" fill="hsl(192, 50%, 50%)" opacity="0.70"></circle><circle r="11.5" cx="967" cy="242" stroke-width="2" stroke="hsl(249, 50%, 50%)" fill="none" opacity="0.90"></circle><circle r="8.5" cx="894" cy="594" stroke-width="2" stroke="hsl(235, 50%, 50%)" fill="none" opacity="0.57"></circle><circle r="9.5" cx="598" cy="134" stroke-width="2" stroke="hsl(244, 50%, 50%)" fill="none" opacity="0.89"></circle><circle r="6" cx="1355" cy="20" stroke-width="2" stroke="hsl(250, 50%, 50%)" fill="none" opacity="0.31"></circle><circle r="8" cx="363" cy="462" fill="hsl(254, 50%, 50%)" opacity="0.28"></circle><circle r="6.5" cx="936" cy="741" fill="hsl(243, 50%, 50%)" opacity="0.11"></circle><circle r="8" cx="763" cy="775" fill="hsl(235, 50%, 50%)" opacity="0.70"></circle><circle r="8.5" cx="1354" cy="134" fill="hsl(258, 50%, 50%)" opacity="0.27"></circle><circle r="10.5" cx="142" cy="313" stroke-width="2" stroke="hsl(218, 50%, 50%)" fill="none" opacity="0.40"></circle><circle r="8.5" cx="568" cy="356" stroke-width="2" stroke="hsl(248, 50%, 50%)" fill="none" opacity="0.56"></circle><circle r="6.5" cx="542" cy="781" fill="hsl(248, 50%, 50%)" opacity="0.48"></circle><circle r="7.5" cx="435" cy="532" stroke-width="2" stroke="hsl(252, 50%, 50%)" fill="none" opacity="0.18"></circle><circle r="8" cx="595" cy="568" stroke-width="2" stroke="hsl(247, 50%, 50%)" fill="none" opacity="0.59"></circle><circle r="10" cx="568" cy="86" stroke-width="2" stroke="hsl(235, 50%, 50%)" fill="none" opacity="0.89"></circle><circle r="9.5" cx="441" cy="190" fill="hsl(252, 50%, 50%)" opacity="0.22"></circle><circle r="8" cx="668" cy="210" fill="hsl(244, 50%, 50%)" opacity="0.81"></circle><circle r="9.5" cx="1356" cy="621" fill="hsl(243, 50%, 50%)" opacity="0.45"></circle><circle r="9" cx="1104" cy="168" fill="hsl(281, 50%, 50%)" opacity="0.82"></circle><circle r="9.5" cx="376" cy="329" fill="hsl(254, 50%, 50%)" opacity="0.52"></circle><circle r="9.5" cx="1004" cy="308" fill="hsl(260, 50%, 50%)" opacity="0.55"></circle><circle r="8.5" cx="842" cy="739" fill="hsl(231, 50%, 50%)" opacity="0.16"></circle><circle r="7.5" cx="1336" cy="341" fill="hsl(253, 50%, 50%)" opacity="0.78"></circle><circle r="15" cx="30" cy="62" fill="hsl(175, 50%, 50%)" opacity="0.31"></circle><circle r="10.5" cx="733" cy="457" stroke-width="2" stroke="hsl(240, 50%, 50%)" fill="none" opacity="0.31"></circle><circle r="8.5" cx="277" cy="673" stroke-width="2" stroke="hsl(250, 50%, 50%)" fill="none" opacity="0.75"></circle><circle r="8.5" cx="463" cy="257" fill="hsl(251, 50%, 50%)" opacity="0.73"></circle><circle r="7.5" cx="1298" cy="240" fill="hsl(270, 50%, 50%)" opacity="0.85"></circle><circle r="6" cx="653" cy="17" stroke-width="2" stroke="hsl(239, 50%, 50%)" fill="none" opacity="0.94"></circle><circle r="10" cx="159" cy="446" stroke-width="2" stroke="hsl(226, 50%, 50%)" fill="none" opacity="0.32"></circle><circle r="10.5" cx="908" cy="167" fill="hsl(239, 50%, 50%)" opacity="0.23"></circle><circle r="8" cx="490" cy="736" stroke-width="2" stroke="hsl(249, 50%, 50%)" fill="none" opacity="0.24"></circle><circle r="7.5" cx="1309" cy="299" stroke-width="2" stroke="hsl(270, 50%, 50%)" fill="none" opacity="0.97"></circle><circle r="8" cx="1233" cy="274" fill="hsl(286, 50%, 50%)" opacity="0.71"></circle><circle r="10" cx="562" cy="299" stroke-width="2" stroke="hsl(248, 50%, 50%)" fill="none" opacity="0.73"></circle><circle r="10" cx="45" cy="779" stroke-width="2" stroke="hsl(182, 50%, 50%)" fill="none" opacity="0.98"></circle><circle r="10" cx="673" cy="263" fill="hsl(244, 50%, 50%)" opacity="0.24"></circle><circle r="7" cx="872" cy="639" stroke-width="2" stroke="hsl(232, 50%, 50%)" fill="none" opacity="0.23"></circle><circle r="9" cx="207" cy="434" fill="hsl(239, 50%, 50%)" opacity="0.55"></circle><circle r="8" cx="1029" cy="212" stroke-width="2" stroke="hsl(266, 50%, 50%)" fill="none" opacity="0.58"></circle><circle r="8" cx="1330" cy="714" stroke-width="2" stroke="hsl(262, 50%, 50%)" fill="none" opacity="0.44"></circle><circle r="9.5" cx="635" cy="84" stroke-width="2" stroke="hsl(243, 50%, 50%)" fill="none" opacity="0.78"></circle><circle r="7" cx="703" cy="23" stroke-width="2" stroke="hsl(248, 50%, 50%)" fill="none" opacity="0.34"></circle><circle r="7.5" cx="1101" cy="424" stroke-width="2" stroke="hsl(282, 50%, 50%)" fill="none" opacity="0.11"></circle><circle r="13" cx="95" cy="134" stroke-width="2" stroke="hsl(206, 50%, 50%)" fill="none" opacity="0.58"></circle><circle r="7.5" cx="986" cy="562" stroke-width="2" stroke="hsl(254, 50%, 50%)" fill="none" opacity="0.13"></circle><circle r="17" cx="35" cy="159" fill="hsl(173, 50%, 50%)" opacity="0.16"></circle><circle r="15" cx="363" cy="47" fill="hsl(241, 50%, 50%)" opacity="0.18"></circle><circle r="7.5" cx="874" cy="678" stroke-width="2" stroke="hsl(232, 50%, 50%)" fill="none" opacity="0.63"></circle><circle r="6.5" cx="384" cy="600" stroke-width="2" stroke="hsl(254, 50%, 50%)" fill="none" opacity="0.21"></circle><circle r="11.5" cx="143" cy="189" stroke-width="2" stroke="hsl(218, 50%, 50%)" fill="none" opacity="0.53"></circle><circle r="7.5" cx="182" cy="682" stroke-width="2" stroke="hsl(233, 50%, 50%)" fill="none" opacity="0.55"></circle><circle r="8" cx="1150" cy="455" stroke-width="2" stroke="hsl(289, 50%, 50%)" fill="none" opacity="0.40"></circle><circle r="6" cx="1167" cy="764" fill="hsl(290, 50%, 50%)" opacity="0.97"></circle><circle r="6.5" cx="400" cy="759" fill="hsl(254, 50%, 50%)" opacity="0.89"></circle><circle r="5.5" cx="626" cy="753" fill="hsl(246, 50%, 50%)" opacity="0.87"></circle><circle r="8.5" cx="475" cy="572" stroke-width="2" stroke="hsl(250, 50%, 50%)" fill="none" opacity="0.48"></circle><circle r="7.5" cx="1361" cy="765" stroke-width="2" stroke="hsl(243, 50%, 50%)" fill="none" opacity="0.21"></circle><circle r="11" cx="786" cy="309" fill="hsl(233, 50%, 50%)" opacity="0.17"></circle><circle r="6" cx="539" cy="746" fill="hsl(248, 50%, 50%)" opacity="0.24"></circle><circle r="12" cx="45" cy="592" stroke-width="2" stroke="hsl(182, 50%, 50%)" fill="none" opacity="0.61"></circle><circle r="6.5" cx="946" cy="781" fill="hsl(243, 50%, 50%)" opacity="0.57"></circle><circle r="4.5" cx="743" cy="41" stroke-width="2" stroke="hsl(251, 50%, 50%)" fill="none" opacity="0.62"></circle><circle r="7.5" cx="1387" cy="243" stroke-width="2" stroke="hsl(233, 50%, 50%)" fill="none" opacity="0.23"></circle><circle r="7.5" cx="1400" cy="421" fill="hsl(222, 50%, 50%)" opacity="0.11"></circle><circle r="10" cx="538" cy="552" stroke-width="2" stroke="hsl(248, 50%, 50%)" fill="none" opacity="0.47"></circle><circle r="6.5" cx="888" cy="756" stroke-width="2" stroke="hsl(232, 50%, 50%)" fill="none" opacity="0.55"></circle><circle r="6" cx="1289" cy="508" fill="hsl(270, 50%, 50%)" opacity="0.79"></circle><circle r="12" cx="27" cy="544" fill="hsl(172, 50%, 50%)" opacity="0.85"></circle><circle r="8.5" cx="892" cy="110" stroke-width="2" stroke="hsl(248, 50%, 50%)" fill="none" opacity="0.77"></circle><circle r="7" cx="1177" cy="400" stroke-width="2" stroke="hsl(290, 50%, 50%)" fill="none" opacity="0.27"></circle><circle r="12.5" cx="211" cy="308" stroke-width="2" stroke="hsl(239, 50%, 50%)" fill="none" opacity="0.41"></circle><circle r="9" cx="1391" cy="292" fill="hsl(233, 50%, 50%)" opacity="0.88"></circle><circle r="5.5" cx="876" cy="786" stroke-width="2" stroke="hsl(232, 50%, 50%)" fill="none" opacity="0.67"></circle><circle r="6.5" cx="587" cy="743" stroke-width="2" stroke="hsl(247, 50%, 50%)" fill="none" opacity="0.55"></circle><circle r="10" cx="384" cy="183" stroke-width="2" stroke="hsl(254, 50%, 50%)" fill="none" opacity="0.68"></circle><circle r="9" cx="732" cy="589" stroke-width="2" stroke="hsl(240, 50%, 50%)" fill="none" opacity="0.84"></circle><circle r="9.5" cx="1059" cy="81" fill="hsl(260, 50%, 50%)" opacity="0.27"></circle><circle r="6.5" cx="1306" cy="380" stroke-width="2" stroke="hsl(270, 50%, 50%)" fill="none" opacity="0.17"></circle><circle r="8.5" cx="1067" cy="373" stroke-width="2" stroke="hsl(278, 50%, 50%)" fill="none" opacity="0.33"></circle><circle r="10.5" cx="1041" cy="145" fill="hsl(266, 50%, 50%)" opacity="0.77"></circle><circle r="9" cx="264" cy="417" fill="hsl(247, 50%, 50%)" opacity="0.66"></circle><circle r="8" cx="916" cy="640" stroke-width="2" stroke="hsl(239, 50%, 50%)" fill="none" opacity="0.99"></circle><circle r="8.5" cx="253" cy="729" stroke-width="2" stroke="hsl(247, 50%, 50%)" fill="none" opacity="0.13"></circle><circle r="6.5" cx="525" cy="701" fill="hsl(248, 50%, 50%)" opacity="0.97"></circle><circle r="7" cx="783" cy="254" stroke-width="2" stroke="hsl(233, 50%, 50%)" fill="none" opacity="0.20"></circle><circle r="10" cx="672" cy="333" fill="hsl(244, 50%, 50%)" opacity="0.24"></circle><circle r="8" cx="928" cy="23" fill="hsl(246, 50%, 50%)" opacity="0.53"></circle><circle r="11.5" cx="786" cy="585" fill="hsl(233, 50%, 50%)" opacity="0.96"></circle><circle r="15" cx="34" cy="652" stroke-width="2" stroke="hsl(172, 50%, 50%)" fill="none" opacity="0.42"></circle><circle r="6.5" cx="359" cy="768" stroke-width="2" stroke="hsl(254, 50%, 50%)" fill="none" opacity="0.63"></circle><circle r="7.5" cx="1237" cy="576" stroke-width="2" stroke="hsl(286, 50%, 50%)" fill="none" opacity="0.81"></circle><circle r="8" cx="1128" cy="322" stroke-width="2" stroke="hsl(286, 50%, 50%)" fill="none" opacity="0.28"></circle><circle r="7.5" cx="787" cy="195" fill="hsl(233, 50%, 50%)" opacity="0.20"></circle><circle r="8.5" cx="1118" cy="105" stroke-width="2" stroke="hsl(273, 50%, 50%)" fill="none" opacity="0.38"></circle><circle r="8.5" cx="1255" cy="127" stroke-width="2" stroke="hsl(278, 50%, 50%)" fill="none" opacity="0.90"></circle><circle r="7" cx="690" cy="603" stroke-width="2" stroke="hsl(242, 50%, 50%)" fill="none" opacity="0.51"></circle><circle r="13" cx="29" cy="482" fill="hsl(172, 50%, 50%)" opacity="0.29"></circle><circle r="8" cx="834" cy="677" fill="hsl(231, 50%, 50%)" opacity="0.22"></circle><circle r="11" cx="131" cy="491" stroke-width="2" stroke="hsl(210, 50%, 50%)" fill="none" opacity="0.70"></circle><circle r="8" cx="1112" cy="249" fill="hsl(286, 50%, 50%)" opacity="0.51"></circle><circle r="10.5" cx="842" cy="323" fill="hsl(231, 50%, 50%)" opacity="0.64"></circle><circle r="6.5" cx="631" cy="718" stroke-width="2" stroke="hsl(246, 50%, 50%)" fill="none" opacity="0.84"></circle><circle r="8" cx="944" cy="77" stroke-width="2" stroke="hsl(250, 50%, 50%)" fill="none" opacity="0.51"></circle><circle r="6.5" cx="580" cy="781" fill="hsl(247, 50%, 50%)" opacity="0.35"></circle><circle r="8" cx="1314" cy="106" fill="hsl(263, 50%, 50%)" opacity="0.74"></circle><circle r="7" cx="1291" cy="446" stroke-width="2" stroke="hsl(270, 50%, 50%)" fill="none" opacity="0.15"></circle><circle r="9" cx="315" cy="424" stroke-width="2" stroke="hsl(254, 50%, 50%)" fill="none" opacity="0.60"></circle><circle r="8" cx="1394" cy="337" stroke-width="2" stroke="hsl(233, 50%, 50%)" fill="none" opacity="0.15"></circle><circle r="8.5" cx="1223" cy="75" fill="hsl(269, 50%, 50%)" opacity="0.26"></circle><circle r="6.5" cx="1404" cy="47" fill="hsl(244, 50%, 50%)" opacity="0.62"></circle><circle r="4.5" cx="1400" cy="13" stroke-width="2" stroke="hsl(246, 50%, 50%)" fill="none" opacity="0.73"></circle><circle r="10.5" cx="906" cy="453" fill="hsl(235, 50%, 50%)" opacity="0.62"></circle><circle r="9" cx="714" cy="771" fill="hsl(240, 50%, 50%)" opacity="0.56"></circle><circle r="7" cx="1329" cy="522" fill="hsl(262, 50%, 50%)" opacity="0.93"></circle><circle r="8" cx="1293" cy="560" stroke-width="2" stroke="hsl(270, 50%, 50%)" fill="none" opacity="0.73"></circle><circle r="9.5" cx="888" cy="381" fill="hsl(232, 50%, 50%)" opacity="0.41"></circle><circle r="14" cx="310" cy="139" stroke-width="2" stroke="hsl(250, 50%, 50%)" fill="none" opacity="0.88"></circle><circle r="14.5" cx="29" cy="248" stroke-width="2" stroke="hsl(172, 50%, 50%)" fill="none" opacity="0.85"></circle><circle r="6.5" cx="311" cy="576" fill="hsl(252, 50%, 50%)" opacity="0.55"></circle><circle r="7" cx="1229" cy="384" stroke-width="2" stroke="hsl(286, 50%, 50%)" fill="none" opacity="0.41"></circle><circle r="8.5" cx="898" cy="333" stroke-width="2" stroke="hsl(235, 50%, 50%)" fill="none" opacity="0.46"></circle><circle r="7" cx="1405" cy="520" stroke-width="2" stroke="hsl(222, 50%, 50%)" fill="none" opacity="0.17"></circle><circle r="8" cx="494" cy="413" stroke-width="2" stroke="hsl(249, 50%, 50%)" fill="none" opacity="0.99"></circle><circle r="8.5" cx="205" cy="25" fill="hsl(248, 50%, 50%)" opacity="0.47"></circle><circle r="13.5" cx="25" cy="719" stroke-width="2" stroke="hsl(172, 50%, 50%)" fill="none" opacity="0.99"></circle><circle r="7" cx="738" cy="684" fill="hsl(237, 50%, 50%)" opacity="0.25"></circle><circle r="7" cx="1231" cy="630" fill="hsl(286, 50%, 50%)" opacity="0.31"></circle><circle r="8.5" cx="220" cy="696" stroke-width="2" stroke="hsl(239, 50%, 50%)" fill="none" opacity="0.66"></circle><circle r="12.5" cx="137" cy="373" stroke-width="2" stroke="hsl(218, 50%, 50%)" fill="none" opacity="0.79"></circle><circle r="9.5" cx="177" cy="619" stroke-width="2" stroke="hsl(226, 50%, 50%)" fill="none" opacity="0.59"></circle><circle r="10.5" cx="155" cy="124" stroke-width="2" stroke="hsl(225, 50%, 50%)" fill="none" opacity="0.55"></circle><circle r="7.5" cx="1046" cy="552" fill="hsl(272, 50%, 50%)" opacity="0.40"></circle><circle r="9" cx="235" cy="524" fill="hsl(243, 50%, 50%)" opacity="0.84"></circle><circle r="20.5" cx="48" cy="332" stroke-width="2" stroke="hsl(182, 50%, 50%)" fill="none" opacity="0.90"></circle><circle r="9" cx="870" cy="492" fill="hsl(232, 50%, 50%)" opacity="0.71"></circle><circle r="6.5" cx="319" cy="781" fill="hsl(254, 50%, 50%)" opacity="0.52"></circle><circle r="9" cx="856" cy="264" stroke-width="2" stroke="hsl(231, 50%, 50%)" fill="none" opacity="0.66"></circle><circle r="7.5" cx="567" cy="655" fill="hsl(248, 50%, 50%)" opacity="0.73"></circle><circle r="7.5" cx="1218" cy="23" fill="hsl(255, 50%, 50%)" opacity="0.46"></circle><circle r="7.5" cx="865" cy="207" stroke-width="2" stroke="hsl(231, 50%, 50%)" fill="none" opacity="0.95"></circle><circle r="9.5" cx="1099" cy="33" stroke-width="2" stroke="hsl(250, 50%, 50%)" fill="none" opacity="1.00"></circle><circle r="8.5" cx="615" cy="328" stroke-width="2" stroke="hsl(247, 50%, 50%)" fill="none" opacity="0.17"></circle><circle r="5.5" cx="1061" cy="598" fill="hsl(272, 50%, 50%)" opacity="0.38"></circle><circle r="5.5" cx="1134" cy="731" stroke-width="2" stroke="hsl(289, 50%, 50%)" fill="none" opacity="0.83"></circle><circle r="6" cx="1039" cy="716" fill="hsl(266, 50%, 50%)" opacity="0.21"></circle><circle r="6.5" cx="918" cy="688" fill="hsl(239, 50%, 50%)" opacity="0.26"></circle><circle r="7" cx="1222" cy="735" fill="hsl(289, 50%, 50%)" opacity="0.57"></circle><circle r="8.5" cx="326" cy="681" fill="hsl(254, 50%, 50%)" opacity="0.57"></circle><circle r="5" cx="558" cy="691" fill="hsl(248, 50%, 50%)" opacity="0.57"></circle><circle r="9.5" cx="681" cy="496" fill="hsl(244, 50%, 50%)" opacity="0.75"></circle><circle r="10.5" cx="610" cy="207" fill="hsl(247, 50%, 50%)" opacity="0.24"></circle><circle r="6.5" cx="1065" cy="662" stroke-width="2" stroke="hsl(272, 50%, 50%)" fill="none" opacity="0.32"></circle><circle r="12" cx="135" cy="759" stroke-width="2" stroke="hsl(218, 50%, 50%)" fill="none" opacity="0.21"></circle><circle r="6.5" cx="668" cy="50" stroke-width="2" stroke="hsl(247, 50%, 50%)" fill="none" opacity="0.75"></circle><circle r="7.5" cx="1402" cy="111" fill="hsl(240, 50%, 50%)" opacity="0.42"></circle><circle r="7" cx="825" cy="201" stroke-width="2" stroke="hsl(231, 50%, 50%)" fill="none" opacity="0.71"></circle><circle r="7.5" cx="375" cy="505" stroke-width="2" stroke="hsl(254, 50%, 50%)" fill="none" opacity="0.18"></circle><circle r="9" cx="440" cy="702" fill="hsl(252, 50%, 50%)" opacity="0.64"></circle><circle r="11.5" cx="790" cy="438" stroke-width="2" stroke="hsl(233, 50%, 50%)" fill="none" opacity="0.84"></circle><circle r="9.5" cx="618" cy="275" stroke-width="2" stroke="hsl(247, 50%, 50%)" fill="none" opacity="0.67"></circle><circle r="9" cx="799" cy="709" stroke-width="2" stroke="hsl(233, 50%, 50%)" fill="none" opacity="0.26"></circle><circle r="14" cx="28" cy="415" fill="hsl(172, 50%, 50%)" opacity="0.51"></circle><circle r="8" cx="1154" cy="24" stroke-width="2" stroke="hsl(253, 50%, 50%)" fill="none" opacity="0.66"></circle><circle r="7" cx="746" cy="185" fill="hsl(237, 50%, 50%)" opacity="0.69"></circle><circle r="7.5" cx="373" cy="271" stroke-width="2" stroke="hsl(254, 50%, 50%)" fill="none" opacity="0.61"></circle><circle r="11" cx="177" cy="527" fill="hsl(226, 50%, 50%)" opacity="0.95"></circle><circle r="9" cx="412" cy="246" stroke-width="2" stroke="hsl(253, 50%, 50%)" fill="none" opacity="0.90"></circle><circle r="7" cx="998" cy="726" fill="hsl(254, 50%, 50%)" opacity="0.97"></circle><circle r="7" cx="852" cy="129" fill="hsl(244, 50%, 50%)" opacity="0.60"></circle><circle r="12" cx="81" cy="738" fill="hsl(192, 50%, 50%)" opacity="0.54"></circle><circle r="9" cx="1066" cy="313" fill="hsl(272, 50%, 50%)" opacity="0.26"></circle><circle r="6" cx="978" cy="658" stroke-width="2" stroke="hsl(254, 50%, 50%)" fill="none" opacity="0.55"></circle><circle r="7.5" cx="671" cy="764" fill="hsl(244, 50%, 50%)" opacity="0.24"></circle><circle r="5" cx="623" cy="785" fill="hsl(246, 50%, 50%)" opacity="0.18"></circle><circle r="5" cx="562" cy="722" stroke-width="2" stroke="hsl(248, 50%, 50%)" fill="none" opacity="0.52"></circle><circle r="9" cx="675" cy="396" fill="hsl(244, 50%, 50%)" opacity="0.61"></circle><circle r="7" cx="1288" cy="21" stroke-width="2" stroke="hsl(250, 50%, 50%)" fill="none" opacity="0.57"></circle><circle r="11.5" cx="849" cy="553" fill="hsl(231, 50%, 50%)" opacity="0.46"></circle><circle r="10" cx="905" cy="279" stroke-width="2" stroke="hsl(235, 50%, 50%)" fill="none" opacity="0.86"></circle><circle r="8" cx="232" cy="475" stroke-width="2" stroke="hsl(243, 50%, 50%)" fill="none" opacity="0.71"></circle><circle r="9" cx="1040" cy="26" fill="hsl(247, 50%, 50%)" opacity="0.76"></circle><circle r="11" cx="732" cy="380" stroke-width="2" stroke="hsl(240, 50%, 50%)" fill="none" opacity="0.43"></circle><circle r="7.5" cx="381" cy="551" fill="hsl(254, 50%, 50%)" opacity="0.78"></circle><circle r="9.5" cx="329" cy="361" stroke-width="2" stroke="hsl(254, 50%, 50%)" fill="none" opacity="0.11"></circle><circle r="8.5" cx="589" cy="427" fill="hsl(247, 50%, 50%)" opacity="0.83"></circle><circle r="5.5" cx="1203" cy="444" stroke-width="2" stroke="hsl(289, 50%, 50%)" fill="none" opacity="0.77"></circle><circle r="12.5" cx="798" cy="372" fill="hsl(233, 50%, 50%)" opacity="0.35"></circle><circle r="6.5" cx="1131" cy="580" fill="hsl(286, 50%, 50%)" opacity="0.60"></circle><circle r="7.5" cx="667" cy="442" fill="hsl(244, 50%, 50%)" opacity="0.83"></circle></svg>